<?xml version="1.0" encoding="UTF-8"?>
<svg version="1.1" xmlns="http://www.w3.org/2000/svg" width="512" height="512">
<path d="M0 0 C2.39632831 -0.0043531 4.79265523 -0.00953823 7.1889801 -0.01548767 C12.9972276 -0.02744419 18.80542124 -0.03003661 24.61367955 -0.02768741 C29.34148078 -0.02589622 34.06926807 -0.02767096 38.79706764 -0.03191185 C39.47284813 -0.03250704 40.14862861 -0.03310223 40.84488729 -0.03371545 C42.21826619 -0.03492735 43.59164508 -0.03614149 44.96502397 -0.03735783 C57.81504021 -0.04820833 70.66503013 -0.04608301 83.51504783 -0.03997298 C95.23237341 -0.03480897 106.94961573 -0.04605009 118.66692486 -0.0650712 C130.73822364 -0.08451457 142.80948316 -0.09269408 154.88079768 -0.08894795 C161.6418242 -0.08704535 168.40277994 -0.08943056 175.16379356 -0.10366249 C181.52755292 -0.11631316 187.89114674 -0.11422865 194.25490379 -0.1012516 C196.57749998 -0.09890178 198.90010808 -0.1015626 201.22269058 -0.10987473 C244.31047067 -0.25284106 282.09874014 14.03185124 313.2277832 44.2746582 C315.70462678 46.83654362 317.98528589 49.50620203 320.2277832 52.2746582 C320.98704102 53.19633789 321.74629883 54.11801758 322.52856445 55.06762695 C337.9533505 74.17685145 348.22948657 96.24698065 353.2277832 120.2746582 C353.40145007 121.09062879 353.57511694 121.90659937 353.75404644 122.74729633 C355.83393852 134.11219391 355.51629363 145.53404235 355.50244141 157.046875 C355.5067945 159.44320331 355.51197964 161.83953023 355.51792908 164.2358551 C355.52988559 170.0441026 355.53247802 175.85229624 355.53012881 181.66055455 C355.52833762 186.38835578 355.53011236 191.11614307 355.53435326 195.84394264 C355.53494845 196.51972313 355.53554363 197.19550361 355.53615686 197.89176229 C355.53736876 199.26514119 355.53858289 200.63852008 355.53979924 202.01189897 C355.55064974 214.86191521 355.54852442 227.71190513 355.54241439 240.56192283 C355.53725038 252.27924841 355.54849149 263.99649073 355.56751261 275.71379986 C355.58695598 287.78509864 355.59513548 299.85635816 355.59138936 311.92767268 C355.58948676 318.6886992 355.59187197 325.44965494 355.6061039 332.21066856 C355.61875456 338.57442792 355.61667006 344.93802174 355.60369301 351.30177879 C355.60134318 353.62437498 355.604004 355.94698308 355.61231613 358.26956558 C355.74474937 398.18283851 343.92517792 433.2771101 317.2277832 463.2746582 C316.16246576 464.56400213 315.0993834 465.85520241 314.0402832 467.1496582 C310.76994674 470.92809779 307.08941331 474.11398406 303.2277832 477.2746582 C301.83946289 478.4193457 301.83946289 478.4193457 300.4230957 479.5871582 C281.31096307 495.00193972 259.25253905 505.27696935 235.2277832 510.2746582 C234.41181262 510.44832507 233.59584204 510.62199194 232.75514507 510.80092144 C221.3902475 512.88081352 209.96839906 512.56316863 198.45556641 512.54931641 C196.0592381 512.5536695 193.66291118 512.55885464 191.2665863 512.56480408 C185.45833881 512.57676059 179.65014517 512.57935302 173.84188686 512.57700381 C169.11408562 512.57521262 164.38629834 512.57698736 159.65849876 512.58122826 C158.98271828 512.58182345 158.3069378 512.58241863 157.61067912 512.58303186 C156.23730022 512.58424376 154.86392133 512.58545789 153.49054243 512.58667424 C140.6405262 512.59752474 127.79053628 512.59539942 114.94051858 512.58928939 C103.22319299 512.58412538 91.50595067 512.59536649 79.78864155 512.61438761 C67.71734277 512.63383098 55.64608324 512.64201048 43.57476872 512.63826436 C36.81374221 512.63636176 30.05278646 512.63874697 23.29177284 512.6529789 C16.92801349 512.66562956 10.56441967 512.66354506 4.20066261 512.65056801 C1.87806643 512.64821818 -0.44454167 512.650879 -2.76712418 512.65919113 C-42.68039711 512.79162437 -77.7746687 500.97205292 -107.7722168 474.2746582 C-109.06156073 473.20934076 -110.352761 472.1462584 -111.6472168 471.0871582 C-115.42565638 467.81682174 -118.61154265 464.13628831 -121.7722168 460.2746582 C-122.9169043 458.88633789 -122.9169043 458.88633789 -124.0847168 457.4699707 C-139.49949831 438.35783807 -149.77452795 416.29941405 -154.7722168 392.2746582 C-154.94588367 391.45868762 -155.11955053 390.64271704 -155.29848003 389.80202007 C-157.37837212 378.4371225 -157.06072722 367.01527406 -157.046875 355.50244141 C-157.0512281 353.1061131 -157.05641323 350.70978618 -157.06236267 348.3134613 C-157.07431919 342.50521381 -157.07691161 336.69702017 -157.07456241 330.88876186 C-157.07277122 326.16096062 -157.07454596 321.43317334 -157.07878685 316.70537376 C-157.07967963 315.69170304 -157.07967963 315.69170304 -157.08059045 314.65755412 C-157.08180235 313.28417522 -157.08301649 311.91079633 -157.08423283 310.53741743 C-157.09508333 297.6874012 -157.09295801 284.83741128 -157.08684798 271.98739358 C-157.08168397 260.27006799 -157.09292509 248.55282567 -157.1119462 236.83551655 C-157.13138957 224.76421777 -157.13956908 212.69295824 -157.13582295 200.62164372 C-157.13392035 193.86061721 -157.13630556 187.09966146 -157.15053749 180.33864784 C-157.16318816 173.97488849 -157.16110365 167.61129467 -157.1481266 161.24753761 C-157.14577678 158.92494143 -157.1484376 156.60233333 -157.15674973 154.27975082 C-157.28440569 115.80627168 -146.43112974 80.56586735 -120.7722168 51.2746582 C-120.09288086 50.47415039 -119.41354492 49.67364258 -118.71362305 48.84887695 C-114.4079308 43.8549454 -109.88633679 39.43205506 -104.7722168 35.2746582 C-103.84924805 34.51411133 -102.9262793 33.75356445 -101.9753418 32.9699707 C-82.86515422 17.54851498 -60.79891651 7.27275142 -36.7722168 2.2746582 C-35.95624621 2.10099133 -35.14027563 1.92732447 -34.29957867 1.74839497 C-22.93468109 -0.33149712 -11.51283265 -0.01385222 0 0 Z M-18.11019897 51.1570282 C-18.86490844 51.23351209 -19.61961791 51.30999599 -20.39719737 51.38879758 C-45.50659321 54.26327765 -68.97551812 68.95697625 -85.0222168 88.0871582 C-104.02548125 113.08315335 -106.92641279 140.51936302 -106.91748047 171.00756836 C-106.92047855 173.06582703 -106.92388256 175.12408514 -106.92765808 177.18234253 C-106.93643664 182.73640128 -106.9388336 188.29044459 -106.93947387 193.8445096 C-106.94018791 197.32525954 -106.94232892 200.80600563 -106.94497108 204.28675461 C-106.95420448 216.46062211 -106.95830853 228.63447872 -106.95751953 240.80834961 C-106.95691942 252.1065243 -106.96746343 263.40465115 -106.98326319 274.70281374 C-106.99639434 284.44430692 -107.00170109 294.18578456 -107.00106412 303.92728651 C-107.00081075 309.72701986 -107.00357206 315.52671065 -107.01424217 321.32643509 C-107.02401744 326.7881518 -107.02393865 332.24978605 -107.01672554 337.71150589 C-107.01569128 339.69946414 -107.01797234 341.68742778 -107.024086 343.67537689 C-107.05240032 353.53199594 -106.83900303 363.28707889 -105.8898468 373.10336304 C-105.81336291 373.90547262 -105.73687901 374.7075822 -105.65807742 375.53399813 C-102.96508254 400.54576294 -88.41162703 424.47129148 -69.12670898 440.26806641 C-44.54355611 459.52087953 -17.20044379 462.42867322 13.04663086 462.41992188 C15.12606872 462.42291922 17.20550603 462.42632307 19.28494263 462.43009949 C24.90097491 462.43888564 30.51699192 462.44127534 36.13303041 462.44191527 C39.65145683 462.4426289 43.16987944 462.44476914 46.6883049 462.44741249 C58.99069208 462.4566485 71.29306846 462.46074962 83.59545898 462.45996094 C95.01803264 462.4593608 106.44055898 462.46990459 117.86312068 462.4857046 C127.70733727 462.49883054 137.55153849 462.50414271 147.39576375 462.50350553 C153.25863715 462.503252 159.12146845 462.50602225 164.98433304 462.51668358 C170.50512897 462.52644991 176.02584329 462.52638598 181.5466423 462.51916695 C183.55759553 462.51813159 185.56855407 462.52042054 187.57949829 462.5265274 C197.28969525 462.55407447 206.89944075 462.38023189 216.56576538 461.39228821 C217.32047485 461.31580431 218.07518432 461.23932042 218.85276377 461.16051883 C236.93566189 459.09042003 254.21580817 450.68939799 268.2277832 439.2746582 C269.46915039 438.27885742 269.46915039 438.27885742 270.7355957 437.26293945 C289.50586144 421.3464602 302.01576917 397.98563389 304.51466846 373.45887184 C305.34999052 362.81554569 305.37617301 352.21200893 305.37304688 341.54174805 C305.37604496 339.48348938 305.37944896 337.42523127 305.38322449 335.36697388 C305.39200305 329.81291513 305.39440001 324.25887182 305.39504027 318.7048068 C305.39575432 315.22405687 305.39789533 311.74331077 305.40053749 308.2625618 C305.40977088 296.08869429 305.41387493 283.91483769 305.41308594 271.7409668 C305.41248582 260.4427921 305.42302983 249.14466526 305.4388296 237.84650266 C305.45196075 228.10500949 305.4572675 218.36353184 305.45663053 208.6220299 C305.45637716 202.82229654 305.45913847 197.02260576 305.46980858 191.22288132 C305.47958385 185.76116461 305.47950505 180.29953036 305.47229195 174.83781052 C305.47125768 172.84985227 305.47353875 170.86188863 305.4796524 168.87393951 C305.50796673 159.01732046 305.29456944 149.26223752 304.34541321 139.44595337 C304.26892931 138.64384379 304.19244542 137.84173421 304.11364383 137.01531827 C301.39436579 111.75944301 286.64059385 88.15115233 267.4152832 72.0246582 C242.68970736 53.22698067 215.57962671 50.12066528 185.40893555 50.12939453 C183.32949768 50.12639718 181.25006037 50.12299334 179.17062378 50.11921692 C173.5545915 50.11043077 167.93857448 50.10804107 162.32253599 50.10740113 C158.80410958 50.1066875 155.28568697 50.10454727 151.76726151 50.10190392 C139.46487433 50.09266791 127.16249795 50.08856679 114.86010742 50.08935547 C103.43753376 50.08995561 92.01500743 50.07941182 80.59244573 50.06361181 C70.74822914 50.05048587 60.90402792 50.04517369 51.05980265 50.04581088 C45.19692926 50.04606441 39.33409796 50.04329416 33.47123337 50.03263283 C27.95043744 50.02286649 22.42972311 50.02293043 16.9089241 50.03014946 C14.89797088 50.03118482 12.88701234 50.02889587 10.87606812 50.022789 C1.16587116 49.99524194 -8.44387434 50.16908452 -18.11019897 51.1570282 Z " fill="#2D7BDA" transform="translate(156.772216796875,-0.274658203125)"/>
<path d="M0 0 C36.3 0 72.6 0 110 0 C110 11.88 110 23.76 110 36 C101 39 101 39 88 42 C88 65.1 88 88.2 88 112 C91.733125 108.25527344 95.46625 104.51054687 99.3125 100.65234375 C101.69112792 98.268601 104.06990435 95.88501019 106.44921875 93.50195312 C110.21841983 89.72679476 113.98708526 85.95111298 117.75244141 82.17211914 C120.79117855 79.12244614 123.83241504 76.07528563 126.87533569 73.02978706 C128.03070798 71.87257969 129.18520593 70.71449862 130.33877563 69.55549431 C135.8557585 64.01357722 141.35500154 58.49855054 147.33105469 53.4440918 C150.37508515 50.8101772 153.1766337 47.92864458 156 45.0625 C156.58394531 44.47404297 157.16789063 43.88558594 157.76953125 43.27929688 C159.18204805 41.85520207 160.5913781 40.4279475 162 39 C161.35450195 38.94465088 160.70900391 38.88930176 160.04394531 38.83227539 C157.11233145 38.57901389 154.18117319 38.32080964 151.25 38.0625 C150.23421875 37.97548828 149.2184375 37.88847656 148.171875 37.79882812 C147.1921875 37.71181641 146.2125 37.62480469 145.203125 37.53515625 C144.30239258 37.456604 143.40166016 37.37805176 142.47363281 37.29711914 C140 37 140 37 136 36 C136 24.12 136 12.24 136 0 C174.61 0 213.22 0 253 0 C253 11.88 253 23.76 253 36 C246.35504886 38.21498371 246.35504886 38.21498371 242.99072266 38.5847168 C229.72270674 40.46994829 223.16288975 46.07347068 214.375 55.8125 C212.58808188 57.71762365 210.79089893 59.61266659 208.99307251 61.50749207 C207.89100707 62.67678763 206.7970663 63.85382684 205.7137146 65.04048157 C202.35451547 68.70263887 198.79705351 71.97445578 195.02993774 75.21321106 C191.68932944 78.15367659 188.57054211 81.3064081 185.4375 84.46484375 C184.76074219 85.14301651 184.08398438 85.82118927 183.38671875 86.51991272 C181.25542325 88.65674305 179.12765782 90.79704823 177 92.9375 C175.54320221 94.39932123 174.08617299 95.86091187 172.62890625 97.32226562 C169.08326027 100.878854 165.54077261 104.43856016 162 108 C164.14138835 111.83802237 166.21281623 115.51262959 168.9609375 118.953125 C169.78078125 119.9903772 169.78078125 119.9903772 170.6171875 121.04858398 C171.19726562 121.77505127 171.77734375 122.50151855 172.375 123.25 C177.35608504 129.57119051 182.24052123 135.94766835 187 142.4375 C187.57814453 143.22560059 188.15628906 144.01370117 188.75195312 144.82568359 C190.50290364 147.21595503 192.25161087 149.60785458 194 152 C201.29038578 161.96159308 208.63315564 171.87615784 216.125 181.6875 C216.79128418 182.56043701 217.45756836 183.43337402 218.14404297 184.33276367 C220.71947058 187.70585932 223.29512425 191.07877625 225.87402344 194.44921875 C227.58742836 196.6917498 229.29453979 198.93892424 231 201.1875 C231.51062988 201.85289795 232.02125977 202.5182959 232.54736328 203.20385742 C236 207.77159757 236 207.77159757 236 210 C237.09054687 210.07347656 237.09054687 210.07347656 238.203125 210.1484375 C257.10843373 211.55421687 257.10843373 211.55421687 262 214 C262 225.88 262 237.76 262 250 C222.07 250 182.14 250 141 250 C141 238.12 141 226.24 141 214 C144.031875 213.67 147.06375 213.34 150.1875 213 C151.13391357 212.89558594 152.08032715 212.79117188 153.05541992 212.68359375 C157.05337443 212.25583256 160.97193014 211.86656497 165 212 C158.38301223 202.79643205 151.73698892 193.61619828 145 184.5 C136.55985622 173.07695625 128.24803316 161.56238043 120 150 C98.6629347 164.53598785 98.6629347 164.53598785 86.44773865 185.98802185 C85.57225925 193.65407346 86.03215812 201.36189649 87 209 C87.56847656 209.05478516 88.13695312 209.10957031 88.72265625 209.16601562 C93.57136263 209.66383773 98.24761041 210.3791534 103 211.5 C104.670625 211.88671875 104.670625 211.88671875 106.375 212.28125 C109 213 109 213 110 214 C110 225.88 110 237.76 110 250 C73.7 250 37.4 250 0 250 C0 238.12 0 226.24 0 214 C16 210 16 210 26 209 C25.67 153.89 25.34 98.78 25 42 C17.08 40.35 9.16 38.7 1 37 C0.67 36.67 0.34 36.34 0 36 C0 24.12 0 12.24 0 0 Z " fill="#2F7DDC" transform="translate(125,131)"/>
<path d="M0 0 C9.24 0 18.48 0 28 0 C28 0.33 28 0.66 28 1 C40.87 1.495 40.87 1.495 54 2 C54 1.34 54 0.68 54 0 C60.75 -0.125 60.75 -0.125 63 1 C65.08152667 1.09738781 67.16619734 1.13076841 69.25 1.1328125 C71.12171875 1.13474609 71.12171875 1.13474609 73.03125 1.13671875 C74.3409375 1.13285156 75.650625 1.12898438 77 1.125 C78.3096875 1.12886719 79.619375 1.13273437 80.96875 1.13671875 C82.2165625 1.13542969 83.464375 1.13414063 84.75 1.1328125 C85.89984375 1.13168457 87.0496875 1.13055664 88.234375 1.12939453 C90.95954475 1.18894568 90.95954475 1.18894568 93 0 C93.99 0.495 93.99 0.495 95 1 C97.17674783 1.15469367 99.3578348 1.25002106 101.5390625 1.31640625 C102.84101563 1.35830078 104.14296875 1.40019531 105.484375 1.44335938 C106.86458045 1.48317299 108.24478883 1.52288522 109.625 1.5625 C111.01303415 1.60569407 112.40105528 1.64930865 113.7890625 1.69335938 C117.19260256 1.79972 120.59621778 1.90174714 124 2 C124 1.34 124 0.68 124 0 C125.32 0 126.64 0 128 0 C128 0.66 128 1.32 128 2 C135.92 1.505 135.92 1.505 144 1 C144 0.67 144 0.34 144 0 C150.27 0 156.54 0 163 0 C163 0.33 163 0.66 163 1 C164.65 1.33 166.3 1.66 168 2 C168 1.34 168 0.68 168 0 C171.62528568 -0.20140476 173.86501708 0.14223235 177 2 C177 1.34 177 0.68 177 0 C178.32 0 179.64 0 181 0 C180.67 1.32 180.34 2.64 180 4 C109.71 4 39.42 4 -33 4 C-33 3.34 -33 2.68 -33 2 C-22.11 2 -11.22 2 0 2 C0 1.34 0 0.68 0 0 Z " fill="#548FD9" transform="translate(181,46)"/>
<path d="M0 0 C1.61309485 3.22618971 1.11171671 6.74647408 1.08229065 10.28884888 C1.07906152 11.15627083 1.07583239 12.02369278 1.07250541 12.91740024 C1.06038537 15.84097327 1.04102193 18.76445442 1.02172852 21.68798828 C1.01159048 23.77692462 1.0018963 25.86586315 0.99261475 27.95480347 C0.96608609 33.64048423 0.93331637 39.32611422 0.89946485 45.01175547 C0.8651689 50.94815707 0.83655895 56.88458594 0.80735779 62.8210144 C0.75115868 74.06908281 0.68981171 85.31711708 0.62663645 96.56514823 C0.55497844 109.36783305 0.48902701 122.17054525 0.42356598 134.97326303 C0.28874797 161.31554421 0.14672762 187.65778265 0 214 C-0.66 214 -1.32 214 -2 214 C-2.00423194 213.20724702 -2.00846388 212.41449404 -2.01282406 211.59771824 C-2.11598564 192.33660848 -2.22460134 173.07553661 -2.33933926 153.81449223 C-2.39469243 144.5001204 -2.4481778 135.18574475 -2.49731445 125.87133789 C-2.5401307 117.75592234 -2.58640212 109.64053524 -2.63687855 101.52516359 C-2.66350018 97.22541882 -2.68835368 92.92567977 -2.70907402 88.62590218 C-2.72860835 84.58354393 -2.75274231 80.54123993 -2.78049088 76.49892998 C-2.78987835 75.01096961 -2.79754748 73.52299732 -2.80341911 72.03501892 C-2.81165149 70.01221897 -2.82651711 67.98944917 -2.84178162 65.96669006 C-2.84823417 64.8319629 -2.85468672 63.69723574 -2.8613348 62.5281229 C-2.71451868 60.06304146 -2.71451868 60.06304146 -4 59 C-4.08861992 56.1883662 -4.11522355 53.40141745 -4.09765625 50.58984375 C-4.0962413 49.74780899 -4.09482635 48.90577423 -4.09336853 48.03822327 C-4.08775263 45.33794665 -4.07519748 42.63775172 -4.0625 39.9375 C-4.05748705 38.11132932 -4.05292379 36.28515734 -4.04882812 34.45898438 C-4.03777804 29.97262458 -4.02050279 25.48632616 -4 21 C-3.34 21 -2.68 21 -2 21 C-2.02320313 19.73542969 -2.04640625 18.47085938 -2.0703125 17.16796875 C-2.08907126 15.5078184 -2.10727135 13.84766167 -2.125 12.1875 C-2.14175781 11.35412109 -2.15851562 10.52074219 -2.17578125 9.66210938 C-2.18222656 8.85966797 -2.18867187 8.05722656 -2.1953125 7.23046875 C-2.20578613 6.49207764 -2.21625977 5.75368652 -2.22705078 4.99291992 C-2 3 -2 3 0 0 Z " fill="#528EDB" transform="translate(50,148)"/>
<path d="M0 0 C0.33 0 0.66 0 1 0 C1 2.31 1 4.62 1 7 C1.66 7.33 2.32 7.66 3 8 C2.83773926 8.69601318 2.67547852 9.39202637 2.50830078 10.10913086 C1.96217122 13.21514435 1.87048188 16.10094793 1.8671875 19.25390625 C1.86589844 20.43791016 1.86460937 21.62191406 1.86328125 22.84179688 C1.86714844 24.06962891 1.87101563 25.29746094 1.875 26.5625 C1.87113281 27.79419922 1.86726562 29.02589844 1.86328125 30.29492188 C1.86457031 31.47763672 1.86585938 32.66035156 1.8671875 33.87890625 C1.86831543 34.9572876 1.86944336 36.03566895 1.87060547 37.14672852 C1.88529119 39.92299695 1.88529119 39.92299695 2.63330078 42.19506836 C2.81481689 43.08850952 2.81481689 43.08850952 3 44 C2.34 44.99 1.68 45.98 1 47 C1.66 47.33 2.32 47.66 3 48 C2.505 48.495 2.505 48.495 2 49 C1.91494123 50.44785133 1.89827145 51.89981291 1.91003418 53.35011292 C1.91440742 54.27021873 1.91878067 55.19032454 1.92328644 56.13831234 C1.93248863 57.14140218 1.94169083 58.14449202 1.95117188 59.17797852 C1.96113759 61.29858998 1.97014791 63.41920612 1.97827148 65.53982544 C1.98313568 66.62178822 1.98799988 67.70375099 1.99301147 68.81850052 C2.00337042 73.534373 1.96096703 78.24906715 1.90820312 82.96459961 C1.89838661 83.86865319 1.8885701 84.77270678 1.87845612 85.70415592 C1.84708838 88.52023132 1.81419955 91.33628646 1.78125 94.15234375 C1.75871761 96.15971249 1.73629977 98.16708252 1.71398926 100.17445374 C1.65593732 105.37079171 1.59636605 110.5671111 1.53643799 115.76342773 C1.47516627 121.10073801 1.41538715 126.43806501 1.35546875 131.77539062 C1.23840986 142.18361028 1.11974002 152.59181086 1 163 C0.67 163 0.34 163 0 163 C0 109.21 0 55.42 0 0 Z " fill="#3C81D7" transform="translate(151,177)"/>
<path d="M0 0 C1.32 0 2.64 0 4 0 C4 0.66 4 1.32 4 2 C11.92 1.505 11.92 1.505 20 1 C20 0.67 20 0.34 20 0 C26.27 0 32.54 0 39 0 C39 0.33 39 0.66 39 1 C41.475 1.495 41.475 1.495 44 2 C44 1.34 44 0.68 44 0 C47.62528568 -0.20140476 49.86501708 0.14223235 53 2 C53 1.34 53 0.68 53 0 C54.32 0 55.64 0 57 0 C56.67 0.99 56.34 1.98 56 3 C31.91 3 7.82 3 -17 3 C-17 2.67 -17 2.34 -17 2 C-11.39 2 -5.78 2 0 2 C0 1.34 0 0.68 0 0 Z " fill="#4188E4" transform="translate(305,46)"/>
<path d="M0 0 C1.22419811 3.67259434 0.54143712 4.57458418 -1 8 C-1.33 8.99 -1.66 9.98 -2 11 C-2.66 11.33 -3.32 11.66 -4 12 C-4.33 12.99 -4.66 13.98 -5 15 C-5.66 15.33 -6.32 15.66 -7 16 C-7.433125 17.2065625 -7.433125 17.2065625 -7.875 18.4375 C-9.23345384 21.53175596 -10.04928078 21.61142625 -13 23 C-14.33895632 24.66215268 -15.67130142 26.32963607 -17 28 C-23.28235294 34 -23.28235294 34 -26 34 C-26.66 35.32 -27.32 36.64 -28 38 C-28.66 38 -29.32 38 -30 38 C-30.8971875 38.928125 -30.8971875 38.928125 -31.8125 39.875 C-34.17820951 42.17311781 -35.8351785 43.12967409 -39 44 C-41.15625 43.54296875 -41.15625 43.54296875 -43 43 C-42.28457031 42.62230469 -41.56914062 42.24460937 -40.83203125 41.85546875 C-23.31175658 32.17738688 -9.00429759 18.00859519 0 0 Z " fill="#0952B3" transform="translate(450,407)"/>
<path d="M0 0 C-0.33 1.32 -0.66 2.64 -1 4 C-2.65 4.33 -4.3 4.66 -6 5 C-6 5.66 -6 6.32 -6 7 C-7.99284138 8.3440093 -9.99419671 9.67541292 -12 11 C-15.74191827 14.4540784 -19.03520905 18.27623858 -22.3515625 22.1328125 C-24 24 -24 24 -25.6484375 25.5546875 C-27.2556919 27.07207805 -27.2556919 27.07207805 -28 30 C-28.99 30.33 -29.98 30.66 -31 31 C-32.04349839 32.63978318 -33.03182008 34.31464976 -34 36 C-37.02767011 40.31058118 -40.11653678 44.41526472 -44 48 C-40.54556974 38.21546192 -33.06152749 29.68475784 -26.04296875 22.21875 C-23.94128543 19.99198502 -23.94128543 19.99198502 -21.96484375 17.42578125 C-17.74554331 12.2166648 -6.68216953 0 0 0 Z " fill="#63A3EE" transform="translate(64,27)"/>
<path d="M0 0 C0.33 0 0.66 0 1 0 C1 2.31 1 4.62 1 7 C1.66 7.33 2.32 7.66 3 8 C2.83773926 8.69601318 2.67547852 9.39202637 2.50830078 10.10913086 C1.96217122 13.21514435 1.87048188 16.10094793 1.8671875 19.25390625 C1.86589844 20.43791016 1.86460937 21.62191406 1.86328125 22.84179688 C1.86714844 24.06962891 1.87101563 25.29746094 1.875 26.5625 C1.87113281 27.79419922 1.86726562 29.02589844 1.86328125 30.29492188 C1.86457031 31.47763672 1.86585938 32.66035156 1.8671875 33.87890625 C1.86831543 34.9572876 1.86944336 36.03566895 1.87060547 37.14672852 C1.88529119 39.92299695 1.88529119 39.92299695 2.63330078 42.19506836 C2.81481689 43.08850952 2.81481689 43.08850952 3 44 C2.34 44.99 1.68 45.98 1 47 C1.66 47.33 2.32 47.66 3 48 C2.505 48.495 2.505 48.495 2 49 C1.92741054 51.18639453 1.91626217 53.37500389 1.9375 55.5625 C1.94652344 56.76003906 1.95554688 57.95757812 1.96484375 59.19140625 C1.97644531 60.11824219 1.98804688 61.04507813 2 62 C1.01 62.495 1.01 62.495 0 63 C0 42.21 0 21.42 0 0 Z " fill="#4289E1" transform="translate(151,177)"/>
<path d="M0 0 C0.66 0.33 1.32 0.66 2 1 C-2.60136502 6.53601728 -7.46398272 11.39863498 -13 16 C-14 13 -14 13 -14 11 C-13.01 11 -12.02 11 -11 11 C-10.7834375 9.6696875 -10.7834375 9.6696875 -10.5625 8.3125 C-8.35983832 3.64285725 -4.76943768 1.78853913 0 0 Z " fill="#0350A1" transform="translate(473,461)"/>
<path d="M0 0 C0.33 0 0.66 0 1 0 C1.0246501 5.10863896 1.04283607 10.21724359 1.05493164 15.32592773 C1.05997204 17.06519168 1.0668043 18.80445136 1.07543945 20.54370117 C1.08751792 23.03825937 1.09323108 25.53276173 1.09765625 28.02734375 C1.10281754 28.80963852 1.10797882 29.59193329 1.11329651 30.39793396 C1.11349226 32.26567114 1.06199694 34.13329204 1 36 C0 37 0 37 -2.5625 37.0625 C-3.366875 37.041875 -4.17125 37.02125 -5 37 C-5 36.34 -5 35.68 -5 35 C-3.68 35 -2.36 35 -1 35 C-0.67 23.45 -0.34 11.9 0 0 Z " fill="#3D76C0" transform="translate(377,131)"/>
<path d="M0 0 C2.9375 0.8125 2.9375 0.8125 6 2 C7 5 7 5 6 8 C6.75911128 9.89798828 6.75911128 9.89798828 7.9375 11.8125 C9.85123144 15.37033061 10.40979216 17.90207843 10 22 C8.47241424 19.70862136 7.38902018 17.79644161 6.30859375 15.3125 C6.00373047 14.61382812 5.69886719 13.91515625 5.38476562 13.1953125 C5.07216797 12.47085938 4.75957031 11.74640625 4.4375 11 C4.12103516 10.27554688 3.80457031 9.55109375 3.47851562 8.8046875 C2.2096179 5.88433689 1.00789928 3.02369783 0 0 Z " fill="#3274C7" transform="translate(448,100)"/>
<path d="M0 0 C-3.03248292 2.62345034 -5.14098096 3.44079255 -9.125 3.75 C-9.99382812 3.82734375 -10.86265625 3.9046875 -11.7578125 3.984375 C-14 4 -14 4 -16 3 C-16 2.01 -16 1.02 -16 0 C-13.89651926 -0.19504458 -11.79217415 -0.38078496 -9.6875 -0.5625 C-8.51574219 -0.66691406 -7.34398437 -0.77132813 -6.13671875 -0.87890625 C-3 -1 -3 -1 0 0 Z " fill="#2F6DB9" transform="translate(288,344)"/>
<path d="M0 0 C0.66 0.33 1.32 0.66 2 1 C-4.75656428 5.729595 -10.51129839 9.7073918 -19 9 C-19 8.34 -19 7.68 -19 7 C-17.96359375 6.66226562 -16.9271875 6.32453125 -15.859375 5.9765625 C-14.4895304 5.52620263 -13.11974166 5.07567286 -11.75 4.625 C-11.06808594 4.40328125 -10.38617188 4.1815625 -9.68359375 3.953125 C-6.9046272 3.03579624 -4.24106635 2.12532257 -1.640625 0.7734375 C-1.09921875 0.51820313 -0.5578125 0.26296875 0 0 Z " fill="#0F59AE" transform="translate(405,451)"/>
<path d="M0 0 C2.33294775 -0.04241723 4.66702567 -0.04092937 7 0 C7.33 0.33 7.66 0.66 8 1 C10.0587768 1.27953219 12.11728432 1.44734351 14.1875 1.62109375 C15.0846875 1.80865234 15.0846875 1.80865234 16 2 C16.33 2.66 16.66 3.32 17 4 C14.91673869 4.02709444 12.83337559 4.04643873 10.75 4.0625 C9.00976562 4.07990234 9.00976562 4.07990234 7.234375 4.09765625 C4.59022872 4.01782092 2.50173909 3.78643778 0 3 C0 2.01 0 1.02 0 0 Z " fill="#487FC8" transform="translate(261,164)"/>
<path d="M0 0 C2.05137315 3.48216283 2.56818592 6.77275657 3.125 10.75 C3.29257812 11.92046875 3.46015625 13.0909375 3.6328125 14.296875 C3.75398438 15.18890625 3.87515625 16.0809375 4 17 C2.35 17 0.7 17 -1 17 C-1 16.34 -1 15.68 -1 15 C-0.34 15 0.32 15 1 15 C1 14.34 1 13.68 1 13 C0.34 13 -0.32 13 -1 13 C-1.08226668 9.95613276 -0.97608217 7.92824652 0 5 C0.03874921 3.33378384 0.0450286 1.66605828 0 0 Z " fill="#226DD3" transform="translate(507,111)"/>
<path d="M0 0 C-0.33 1.32 -0.66 2.64 -1 4 C-5.29 4.99 -9.58 5.98 -14 7 C-14 5 -14 5 -12.875 3.375 C-10.25146902 1.45107728 -8.19005236 1.93354058 -5 2 C-2 0 -2 0 0 0 Z " fill="#3F8BE3" transform="translate(235,164)"/>
<path d="M0 0 C0.45375 0.66 0.9075 1.32 1.375 2 C1.91125 2.66 2.4475 3.32 3 4 C3.66 4 4.32 4 5 4 C5.05395478 5.62463842 5.09277195 7.24978541 5.125 8.875 C5.14820313 9.77992188 5.17140625 10.68484375 5.1953125 11.6171875 C5 14 5 14 3 16 C2.49193553 14.27318563 1.99389533 12.54342021 1.5 10.8125 C1.08234375 9.36810547 1.08234375 9.36810547 0.65625 7.89453125 C0.03322392 5.14654124 -0.12302812 2.80401584 0 0 Z " fill="#4184DC" transform="translate(3,392)"/>
<path d="M0 0 C1.670625 0.061875 1.670625 0.061875 3.375 0.125 C3.375 0.785 3.375 1.445 3.375 2.125 C4.365 2.125 5.355 2.125 6.375 2.125 C6.375 1.465 6.375 0.805 6.375 0.125 C7.695 0.455 9.015 0.785 10.375 1.125 C10.045 2.445 9.715 3.765 9.375 5.125 C4.425 4.135 -0.525 3.145 -5.625 2.125 C-3.625 0.125 -3.625 0.125 0 0 Z " fill="#498EE5" transform="translate(131.625,165.875)"/>
<path d="M0 0 C6.88940671 0.43632909 13.35751464 1.08389845 20 3 C20 3.66 20 4.32 20 5 C15.88577283 5.18701033 13.61587039 4.8079352 10 3 C8.26186612 2.57336714 6.51011335 2.19923141 4.75 1.875 C3.85796875 1.70742188 2.9659375 1.53984375 2.046875 1.3671875 C1.03367187 1.18542969 1.03367187 1.18542969 0 1 C0 0.67 0 0.34 0 0 Z " fill="#2061B8" transform="translate(367,342)"/>
<path d="M0 0 C1.65 1.32 3.3 2.64 5 4 C3.54735962 4.8638129 2.0876837 5.71580454 0.625 6.5625 C-0.59316406 7.27599609 -0.59316406 7.27599609 -1.8359375 8.00390625 C-2.55007813 8.33261719 -3.26421875 8.66132813 -4 9 C-4.66 8.67 -5.32 8.34 -6 8 C-5.38125 7.79375 -4.7625 7.5875 -4.125 7.375 C-1.15346355 5.45224112 -0.86975341 3.33405473 0 0 Z " fill="#0853A2" transform="translate(430,490)"/>
<path d="M0 0 C3.62528568 -0.20140476 5.86501708 0.14223235 9 2 C9 1.34 9 0.68 9 0 C10.32 0 11.64 0 13 0 C12.67 0.99 12.34 1.98 12 3 C7.38 3 2.76 3 -2 3 C-1.34 2.67 -0.68 2.34 0 2 C0 1.34 0 0.68 0 0 Z " fill="#3B85E7" transform="translate(349,46)"/>
<path d="M0 0 C-3.32473646 2.21649098 -6.15604843 2.95757246 -10 4 C-12.00361307 4.65572791 -14.00491933 5.31875294 -16 6 C-16.66 5.34 -17.32 4.68 -18 4 C-15.56592995 3.13475247 -13.12856816 2.28257135 -10.6875 1.4375 C-9.99720703 1.19064453 -9.30691406 0.94378906 -8.59570312 0.68945312 C-3.33984375 -1.11328125 -3.33984375 -1.11328125 0 0 Z " fill="#649FED" transform="translate(111,6)"/>
<path d="M0 0 C0.66 0 1.32 0 2 0 C1.62964591 6.78982507 -0.40476401 11.26884891 -4 17 C-5 15 -5 15 -4.00390625 11.5234375 C-3.53099953 10.13802064 -3.05018356 8.75528453 -2.5625 7.375 C-2.31951172 6.66859375 -2.07652344 5.9621875 -1.82617188 5.234375 C-1.22412795 3.48726713 -0.61291983 1.74332214 0 0 Z " fill="#105BA9" transform="translate(458,386)"/>
<path d="M0 0 C1.1875 1.6875 1.1875 1.6875 2 4 C0.75 6.3125 0.75 6.3125 -1 9 C-1.350625 10.2375 -1.70125 11.475 -2.0625 12.75 C-2.5265625 14.35875 -2.5265625 14.35875 -3 16 C-3.66 16.33 -4.32 16.66 -5 17 C-4.54619105 15.10307857 -4.08675008 13.20750405 -3.625 11.3125 C-3.36976562 10.25675781 -3.11453125 9.20101562 -2.8515625 8.11328125 C-2.08094511 5.29593234 -1.14501457 2.68331675 0 0 Z " fill="#64A1EA" transform="translate(10,93)"/>
<path d="M0 0 C6.44541485 6.26637555 6.44541485 6.26637555 9 10 C8.67 10.99 8.34 11.98 8 13 C6 11.1875 6 11.1875 4 9 C4 8.01 4 7.02 4 6 C2.68 5.67 1.36 5.34 0 5 C0 3.35 0 1.7 0 0 Z " fill="#276FC3" transform="translate(331,301)"/>
<path d="M0 0 C0.66 0 1.32 0 2 0 C2 0.66 2 1.32 2 2 C2.66 2 3.32 2 4 2 C4.66 3.98 5.32 5.96 6 8 C1.545 6.02 1.545 6.02 -3 4 C-2.67 3.34 -2.34 2.68 -2 2 C-1.34 2 -0.68 2 0 2 C0 1.34 0 0.68 0 0 Z " fill="#3780CF" transform="translate(406,56)"/>
<path d="M0 0 C0.99 0 1.98 0 3 0 C3 0.66 3 1.32 3 2 C3.66 2 4.32 2 5 2 C5 1.34 5 0.68 5 0 C5.66 0.33 6.32 0.66 7 1 C7 2.32 7 3.64 7 5 C4.36 4.67 1.72 4.34 -1 4 C-1 1 -1 1 0 0 Z " fill="#256ECF" transform="translate(121,506)"/>
<path d="M0 0 C4.875 4.625 4.875 4.625 6 8 C3.69 7.67 1.38 7.34 -1 7 C-0.67 4.69 -0.34 2.38 0 0 Z " fill="#1D6CC5" transform="translate(346,321)"/>
<path d="M0 0 C0 0.66 0 1.32 0 2 C-1.93356782 2.69848264 -3.87202298 3.38344814 -5.8125 4.0625 C-6.89144531 4.44535156 -7.97039062 4.82820313 -9.08203125 5.22265625 C-12 6 -12 6 -15 5 C-10.1106562 1.30317908 -6.27039678 0 0 0 Z " fill="#5B9CE6" transform="translate(126,52)"/>
<path d="M0 0 C0.66 0.33 1.32 0.66 2 1 C-2.36363636 5.72727273 -2.36363636 5.72727273 -5.1875 6.9375 C-5.785625 6.958125 -6.38375 6.97875 -7 7 C-7.66 6.34 -8.32 5.68 -9 5 C-7.54735962 4.1361871 -6.0876837 3.28419546 -4.625 2.4375 C-3.40683594 1.72400391 -3.40683594 1.72400391 -2.1640625 0.99609375 C-1.44992188 0.66738281 -0.73578125 0.33867187 0 0 Z " fill="#669FEF" transform="translate(86,13)"/>
<path d="M0 0 C1.95818849 3.60639348 2.15631044 4.99738695 1 9 C0.03624469 12.01300346 -0.96456147 15.01090386 -2 18 C-3.51553092 14.02549507 -2.49888623 10.79518851 -1.5625 6.75 C-1.27503906 5.48671875 -0.98757812 4.2234375 -0.69140625 2.921875 C-0.46324219 1.95765625 -0.23507812 0.9934375 0 0 Z " fill="#58A1F2" transform="translate(4,111)"/>
<path d="M0 0 C-2.64 1.98 -5.28 3.96 -8 6 C-8.66 5.34 -9.32 4.68 -10 4 C-9.34 4 -8.68 4 -8 4 C-7.7525 3.360625 -7.505 2.72125 -7.25 2.0625 C-6 0 -6 0 -4 -0.8125 C-2 -1 -2 -1 0 0 Z " fill="#0953A4" transform="translate(456,480)"/>
<path d="M0 0 C0.66 0.33 1.32 0.66 2 1 C1 4 1 4 -2.3125 5.75 C-5.93653994 6.97848812 -6.6258971 7.10235591 -10 6 C-8.3811004 4.96951963 -6.75467511 3.95085322 -5.125 2.9375 C-4.22007812 2.36902344 -3.31515625 1.80054688 -2.3828125 1.21484375 C-1.20332031 0.61349609 -1.20332031 0.61349609 0 0 Z " fill="#0F57AB" transform="translate(417,444)"/>
<path d="M0 0 C0 2.64 0 5.28 0 8 C-4.875 3.25 -4.875 3.25 -6 1 C-3.92446352 0.4465236 -2.15634036 0 0 0 Z " fill="#2776CE" transform="translate(272,308)"/>
<path d="M0 0 C1.22419811 3.67259434 0.54143712 4.57458418 -1 8 C-1.33 8.99 -1.66 9.98 -2 11 C-3.32 10.67 -4.64 10.34 -6 10 C-4.02 6.7 -2.04 3.4 0 0 Z " fill="#1055AA" transform="translate(450,407)"/>
<path d="M0 0 C2 2 2 2 2 5 C2.66 5.33 3.32 5.66 4 6 C4.99 7.485 4.99 7.485 6 9 C5.67 9.99 5.34 10.98 5 12 C3.96386967 10.76265016 2.94652198 9.50955363 1.9375 8.25 C1.36902344 7.55390625 0.80054688 6.8578125 0.21484375 6.140625 C-1 4 -1 4 -0.68359375 1.734375 C-0.45800781 1.16203125 -0.23242188 0.5896875 0 0 Z " fill="#256CCC" transform="translate(282,327)"/>
<path d="M0 0 C2.9375 0.8125 2.9375 0.8125 6 2 C6.33 2.99 6.66 3.98 7 5 C5.68 5.33 4.36 5.66 3 6 C2.01 4.02 1.02 2.04 0 0 Z " fill="#2A7AC4" transform="translate(448,100)"/>
<path d="M0 0 C1 3 1 3 0.29296875 5.0078125 C-0.25423828 6.05582031 -0.25423828 6.05582031 -0.8125 7.125 C-1.16957031 7.82882813 -1.52664062 8.53265625 -1.89453125 9.2578125 C-3 11 -3 11 -5 12 C-4.42365861 7.24518354 -2.44931479 4.02951788 0 0 Z " fill="#64A1EA" transform="translate(18,77)"/>
<path d="M0 0 C1.65 0 3.3 0 5 0 C5.99 2.31 6.98 4.62 8 7 C7.01 6.67 6.02 6.34 5 6 C5 5.01 5 4.02 5 3 C3.35 2.67 1.7 2.34 0 2 C0 1.34 0 0.68 0 0 Z " fill="#3076C0" transform="translate(491,80)"/>
<path d="M0 0 C0.99 0.66 1.98 1.32 3 2 C0.36 3.98 -2.28 5.96 -5 8 C-5.33 7.34 -5.66 6.68 -6 6 C-4 3 -4 3 -1 2 C-0.67 1.34 -0.34 0.68 0 0 Z " fill="#5F9EE9" transform="translate(89,68)"/>
<path d="M0 0 C0.99 0.33 1.98 0.66 3 1 C0.525 5.455 0.525 5.455 -2 10 C-2.33 8.68 -2.66 7.36 -3 6 C-2.34 5.34 -1.68 4.68 -1 4 C-0.3574765 1.93125966 -0.3574765 1.93125966 0 0 Z " fill="#0A4DA0" transform="translate(496,425)"/>
<path d="M0 0 C1.67110042 2.96178773 2.32682752 5.37071192 2.625 8.75 C2.69976562 9.54921875 2.77453125 10.3484375 2.8515625 11.171875 C2.90054687 11.77515625 2.94953125 12.3784375 3 13 C2.67 12.01 2.34 11.02 2 10 C1.01 10 0.02 10 -1 10 C-0.835 9.278125 -0.67 8.55625 -0.5 7.8125 C-0.02412881 5.13572455 0.077443 2.71050513 0 0 Z " fill="#266FC2" transform="translate(507,111)"/>
<path d="M0 0 C0.99 0.33 1.98 0.66 3 1 C0.03 4.96 0.03 4.96 -3 9 C-3.33 7.68 -3.66 6.36 -4 5 C-3.34 5 -2.68 5 -2 5 C-1.34 3.35 -0.68 1.7 0 0 Z " fill="#5D9EEA" transform="translate(73,83)"/>
<path d="M0 0 C0.99 0 1.98 0 3 0 C1.70700306 2.88437779 0.34058637 4.87219421 -2 7 C-2.125 4.625 -2.125 4.625 -2 2 C-1.34 1.34 -0.68 0.68 0 0 Z " fill="#0552A1" transform="translate(482,448)"/>
<path d="M0 0 C0 4.38968456 -2.12805101 5.76905739 -5 9 C-5.99 8.67 -6.98 8.34 -8 8 C-5.36 5.36 -2.72 2.72 0 0 Z " fill="#418BE0" transform="translate(261,195)"/>
<path d="M0 0 C2.33944736 0.28730055 4.6739143 0.61936779 7 1 C6.4225 1.268125 5.845 1.53625 5.25 1.8125 C2.9674132 3.01719859 1.0262058 4.40798115 -1 6 C-1.042721 4.33388095 -1.04063832 2.66617115 -1 1 C-0.67 0.67 -0.34 0.34 0 0 Z " fill="#337AC5" transform="translate(351,170)"/>
<path d="M0 0 C4.455 1.98 4.455 1.98 9 4 C5.52176885 5.15941038 3.54104422 4.70820884 0 4 C0 2.68 0 1.36 0 0 Z " fill="#4481D5" transform="translate(423,12)"/>
<path d="M0 0 C0.66 0 1.32 0 2 0 C2 3.3 2 6.6 2 10 C0.23934164 7.35901246 -0.52722899 6.0257345 -1 3 C-0.67 2.01 -0.34 1.02 0 0 Z " fill="#3985EB" transform="translate(6,396)"/>
<path d="M0 0 C1.65 0 3.3 0 5 0 C3.02 2.97 3.02 2.97 1 6 C0 3 0 3 0 0 Z " fill="#044FA4" transform="translate(475,455)"/>
<path d="M0 0 C1.65 1.65 3.3 3.3 5 5 C4.67 5.66 4.34 6.32 4 7 C2.68 6.34 1.36 5.68 0 5 C0 3.35 0 1.7 0 0 Z " fill="#2969C1" transform="translate(312,275)"/>
<path d="M0 0 C-0.33 1.32 -0.66 2.64 -1 4 C-2.65 4.33 -4.3 4.66 -6 5 C-3.74193548 0 -3.74193548 0 0 0 Z " fill="#4C84D1" transform="translate(235,164)"/>
</svg>
